<svg width="640" height="640" viewBox="0 0 640 640" fill="none" xmlns="http://www.w3.org/2000/svg">
<path d="M320 63.9999C306.7 63.9999 296 74.6999 296 87.9999V97.6999C214.6 109.3 152 179.4 152 264V278.5C152 316.2 142 353.2 123 385.8L101.1 423.2C97.8 429 96 435.5 96 442.2C96 463.1 112.9 480 133.8 480H506.2C527.1 480 544 463.1 544 442.2C544 435.5 542.2 428.9 538.9 423.2L517 385.7C498 353.1 488 316.1 488 278.4V263.9C488 179.3 425.4 109.2 344 97.5999V87.8999C344 74.5999 333.3 63.8999 320 63.8999V63.9999ZM488.4 432H151.5L164.4 409.9C187.7 370 200 324.6 200 278.5V264C200 197.7 253.7 144 320 144C386.3 144 440 197.7 440 264V278.5C440 324.7 452.3 370 475.5 409.9L488.4 432ZM252.1 528C262 556 288.7 576 320 576C351.3 576 378 556 387.9 528H252.1Z" fill="black"/>
</svg>
